<svg xmlns="http://www.w3.org/2000/svg" width="41" height="41" viewBox="0 0 41 41" fill="none">
  <circle cx="20.25" cy="20.75" r="20.25" fill="#EEF4FA"/>
  <path d="M19.3563 16C17.8465 15.9976 15.9551 16.4518 14.0891 17.3764C12.2261 18.3009 10.7494 19.5121 9.88259 20.6951C9.01533 21.874 8.78081 22.9722 9.20744 23.7554C9.63449 24.5346 10.7142 24.9828 12.2278 24.9828C13.7414 24.9868 15.6328 24.5306 17.4945 23.6101C19.3605 22.6855 20.8363 21.4703 21.7015 20.2914C22.5708 19.1124 22.7998 18.0143 22.3758 17.231C21.9474 16.4518 20.8703 16 19.3563 16ZM23.2536 18.8379C23.1052 19.4556 22.7829 20.0895 22.3291 20.7072C21.3707 22.0113 19.8058 23.2831 17.8465 24.252C15.8872 25.225 13.8983 25.7136 12.2274 25.7136C11.4386 25.7136 10.7074 25.6005 10.0912 25.3623L10.5403 26.1859C10.9678 26.9692 12.0446 27.4173 13.559 27.4173C15.073 27.4173 16.9644 26.9652 18.8262 26.0406C20.6921 25.1201 22.168 23.9048 23.0331 22.7219C23.8982 21.5429 24.1357 20.4448 23.7074 19.6656L23.2536 18.8379ZM24.475 19.5162C24.95 20.5942 24.5683 21.9063 23.6607 23.1377C22.8592 24.2318 21.6336 25.2937 20.1154 26.1819C20.5861 26.2304 21.0781 26.2546 21.5785 26.2546C23.6777 26.2546 25.5776 25.8266 26.9177 25.1604C28.2621 24.4943 29 23.6222 29 22.742C29 21.8619 28.2621 20.9898 26.9177 20.3237C26.235 19.9845 25.4037 19.7059 24.475 19.5162ZM29 24.5548C28.5674 25.0353 27.9737 25.4592 27.274 25.8064C25.7897 26.5412 23.788 26.9813 21.5785 26.9813C20.6794 26.9813 19.8143 26.9086 19.0043 26.7714C18.0204 27.2437 17.0323 27.595 16.0823 27.8251C16.1332 27.8534 16.1841 27.8776 16.2392 27.9059C17.5793 28.572 19.4792 29 21.5785 29C23.6777 29 25.5776 28.572 26.9177 27.9059C28.2621 27.2397 29 26.3676 29 25.4875V24.5548Z" fill="#424961"/>
  <g style="mix-blend-mode:multiply">
    <path d="M25.4074 9L28.6074 10.8648L31.8224 12.7037L31.8074 16.4074L31.8224 20.1111L28.6074 21.95L25.4074 23.8148L22.2074 21.95L18.9924 20.1111L19.0074 16.4074L18.9924 12.7037L22.2074 10.8648L25.4074 9Z" fill="#0587FF"/>
  </g>
</svg>
