<svg width="40" height="40" viewBox="0 0 40 40" fill="none" xmlns="http://www.w3.org/2000/svg">
<circle cx="20" cy="20" r="20" fill="#EEF4FA"/>
<path d="M20 28.5C23.8663 28.5 27 26.125 27 21.9688C27 20.1875 26.4167 17.2188 24.0833 14.8438C24.375 16.625 22.625 17.2188 22.625 17.2188C23.5 14.25 21.1667 10.0938 17.6667 9.5C18.0832 11.875 18.25 14.25 15.3333 16.625C13.875 17.8125 13 19.8657 13 21.9688C13 26.125 16.1337 28.5 20 28.5ZM20 27.3125C18.0668 27.3125 16.5 26.125 16.5 24.0469C16.5 23.1562 16.7917 21.6719 17.9583 20.4844C17.8125 21.375 18.8333 21.9688 18.8333 21.9688C18.3958 20.4844 19.4167 18.1094 21.1667 17.8125C20.9578 19 20.875 20.1875 22.3333 21.375C23.0625 21.9688 23.5 22.9948 23.5 24.0469C23.5 26.125 21.9332 27.3125 20 27.3125Z" fill="#424961"/>
<g style="mix-blend-mode:multiply">
<rect x="10" y="25" width="9" height="21" rx="1" transform="rotate(-90 10 25)" fill="#89D24A"/>
</g>
</svg>
