<svg xmlns="http://www.w3.org/2000/svg" width="40" height="41" viewBox="0 0 40 41" fill="none">
  <circle cx="20" cy="20.5" r="20" fill="#EEF4FA"/>
  <path fill-rule="evenodd" clip-rule="evenodd" d="M12.8235 13C11.2641 13 10 14.2641 10 15.8235V26.1765C10 27.7359 11.2641 29 12.8235 29H23.1763C24.7356 29 25.9998 27.7359 25.9998 26.1765V15.8235C25.9998 14.2641 24.7356 13 23.1763 13H12.8235ZM22.8111 24.8472C22.915 24.7493 22.9733 24.6166 22.9733 24.4783C22.9733 24.3399 22.915 24.2072 22.8111 24.1093C22.7072 24.0115 22.5662 23.9565 22.4193 23.9565H14.1081V22.6283L16.5359 20.6278L19.1318 22.4596C19.2334 22.5313 19.3581 22.568 19.485 22.5635C19.612 22.559 19.7334 22.5135 19.829 22.4348L22.784 20C22.844 19.9565 22.8939 19.9018 22.9306 19.8394C22.9673 19.777 22.9901 19.7082 22.9974 19.6372C23.0047 19.5662 22.9965 19.4946 22.9733 19.4267C22.9501 19.3588 22.9123 19.2961 22.8623 19.2425C22.8124 19.1889 22.7513 19.1455 22.6828 19.115C22.6143 19.0845 22.5399 19.0676 22.4642 19.0652C22.3885 19.0629 22.3131 19.0751 22.2426 19.1013C22.1721 19.1275 22.1081 19.167 22.0545 19.2174L19.4374 21.3735L16.8416 19.5404C16.74 19.4687 16.6152 19.432 16.4883 19.4365C16.3614 19.441 16.24 19.4865 16.1444 19.5652L14.1081 21.2413V17.5217C14.1081 17.3834 14.0498 17.2507 13.9459 17.1528C13.842 17.055 13.701 17 13.5541 17C13.4071 17 13.2662 17.055 13.1623 17.1528C13.0584 17.2507 13 17.3834 13 17.5217V24.4783C13 24.6166 13.0584 24.7493 13.1623 24.8472C13.2662 24.945 13.4071 25 13.5541 25H22.4193C22.5662 25 22.7072 24.945 22.8111 24.8472Z" fill="#424961"/>
  <g style="mix-blend-mode:multiply">
    <path d="M25.5 7.5L27.7058 13.7942L34 16L27.7058 18.2058L25.5 24.5L23.2942 18.2058L17 16L23.2942 13.7942L25.5 7.5Z" fill="#89D24A"/>
  </g>
</svg>
