<svg width="24" height="24" viewBox="0 0 24 24" fill="none" xmlns="http://www.w3.org/2000/svg">
<g id="icons/utility/close">
<path id="close" d="M17.6465 7.05645L16.9436 6.35355C16.7483 6.15829 16.4318 6.15829 16.2365 6.35355L12 10.59L7.7636 6.35355C7.56834 6.15829 7.25176 6.15829 7.05649 6.35355L6.3536 7.05645C6.15834 7.25171 6.15834 7.56829 6.3536 7.76355L10.59 12L6.3536 16.2364C6.15834 16.4317 6.15834 16.7483 6.3536 16.9436L7.05649 17.6464C7.25176 17.8417 7.56834 17.8417 7.7636 17.6464L12 13.41L16.2365 17.6464C16.4318 17.8417 16.7483 17.8417 16.9436 17.6464L17.6465 16.9436C17.8418 16.7483 17.8418 16.4317 17.6465 16.2364L13.41 12L17.6465 7.76355C17.8418 7.56829 17.8418 7.25171 17.6465 7.05645Z" fill="#45424D"/>
</g>
</svg>
